<?xml version="1.0" standalone="no"?>
<!DOCTYPE svg PUBLIC "-//W3C//DTD SVG 20010904//EN"
 "http://www.w3.org/TR/2001/REC-SVG-20010904/DTD/svg10.dtd">
<svg version="1.0" xmlns="http://www.w3.org/2000/svg"
 width="1200.000000pt" height="1200.000000pt" viewBox="0 0 1200.000000 1200.000000"
 preserveAspectRatio="xMidYMid meet">

<g transform="translate(0.000000,1200.000000) scale(0.100000,-0.100000)"
fill="#000000" stroke="none">
<path d="M5830 9659 c-74 -43 -136 -84 -138 -89 -3 -7 198 -309 228 -343 4 -4
55 94 114 219 58 125 105 228 104 229 -26 24 -116 65 -141 64 -21 0 -77 -27
-167 -80z"/>
<path d="M6171 9598 c-10 -24 -60 -130 -110 -236 -50 -107 -91 -197 -91 -202
0 -4 114 -174 253 -377 139 -202 265 -385 279 -406 l26 -38 226 415 c124 228
226 418 226 423 0 7 -771 463 -785 463 -3 0 -14 -19 -24 -42z"/>
<path d="M5485 9457 c-77 -45 -398 -233 -715 -418 l-575 -335 -3 -100 -2 -99
446 -544 447 -543 51 108 c29 60 211 450 406 867 195 416 357 757 360 757 3 0
12 -12 21 -26 l16 -26 12 30 c11 26 10 34 -6 58 l-18 28 -9 -27 c-6 -15 -13
-27 -17 -27 -5 0 -66 85 -136 190 -70 104 -130 189 -133 189 -3 1 -68 -36
-145 -82z"/>
<path d="M7027 9128 c-8 -13 -112 -203 -232 -423 -119 -220 -221 -404 -226
-410 -6 -6 -15 0 -26 14 l-16 24 -14 -27 c-12 -23 -11 -29 3 -52 l17 -26 15
27 c12 23 16 25 26 14 7 -8 210 -302 451 -654 240 -352 443 -646 449 -653 9
-10 47 51 174 285 l162 298 -2 579 -3 579 -365 214 c-201 118 -373 218 -382
224 -13 7 -20 4 -31 -13z"/>
<path d="M5530 8230 c-221 -473 -406 -860 -409 -860 -3 0 -12 10 -20 22 l-13
22 -15 -27 c-7 -15 -15 -27 -18 -27 -2 0 -195 234 -430 520 -234 286 -428 520
-431 520 -2 0 -4 -408 -4 -907 l0 -908 191 -110 c104 -60 194 -110 200 -110 5
0 112 220 238 488 126 268 232 491 235 494 4 4 14 -4 23 -16 l16 -24 14 27 c8
15 17 24 22 22 4 -3 122 -144 262 -315 192 -234 257 -307 265 -298 16 17 834
1525 834 1536 0 10 -521 775 -544 799 -10 10 -95 -164 -416 -848z"/>
<path d="M6114 7453 c-229 -422 -419 -770 -422 -773 -2 -3 -12 5 -21 17 l-18
22 -19 -24 -19 -24 -255 314 c-140 172 -258 314 -261 314 -3 1 -51 -97 -107
-216 -55 -120 -157 -339 -227 -487 -69 -148 -124 -270 -122 -272 9 -9 589
-344 595 -344 4 0 90 153 191 340 101 187 188 340 191 340 4 0 13 -7 20 -15
17 -20 27 -19 35 6 4 11 11 19 16 17 4 -2 171 -201 369 -443 199 -242 364
-440 368 -440 4 0 145 80 313 178 l304 178 199 365 c109 200 202 367 207 369
4 3 14 -4 22 -15 14 -20 14 -20 31 6 l18 26 104 -154 c58 -84 109 -159 114
-167 6 -12 13 -12 39 -1 l31 12 0 417 0 416 -23 -40 c-13 -22 -76 -138 -141
-257 -65 -120 -122 -218 -127 -218 -5 0 -14 9 -21 20 -12 18 -13 18 -29 -6
l-17 -26 -45 64 c-24 34 -228 331 -452 658 -224 327 -411 599 -415 603 -4 5
-196 -337 -426 -760z"/>
<path d="M7318 6518 c-91 -167 -164 -305 -162 -307 1 -1 124 68 273 154 182
106 268 161 263 169 -43 70 -195 286 -201 286 -4 0 -82 -136 -173 -302z"/>
<path d="M5496 6318 c-88 -161 -170 -311 -182 -333 l-23 -40 340 -199 c244
-142 349 -199 370 -198 30 1 371 191 366 204 -4 13 -699 858 -706 858 -4 0
-78 -132 -165 -292z"/>
<path d="M6220 4474 l0 -125 -26 20 c-36 28 -126 29 -171 1 -46 -27 -53 -67
-52 -280 0 -214 7 -246 59 -273 51 -26 146 -19 171 12 l19 23 0 -26 c0 -25 2
-26 65 -26 l65 0 0 400 0 400 -65 0 -65 0 0 -126z m-20 -194 c12 -8 15 -40 15
-184 0 -96 -2 -177 -5 -180 -9 -9 -58 -15 -79 -9 -20 5 -21 12 -21 188 0 137
3 185 13 188 21 9 61 7 77 -3z"/>
<path d="M6520 4545 l0 -55 70 0 70 0 0 55 0 55 -70 0 -70 0 0 -55z"/>
<path d="M4000 4180 l0 -380 70 0 70 0 0 160 0 160 90 0 90 0 0 50 0 50 -90 0
-90 0 0 115 0 115 110 0 110 0 0 55 0 55 -180 0 -180 0 0 -380z"/>
<path d="M4500 4095 l0 -295 70 0 70 0 0 218 c0 248 1 251 78 254 l42 1 0 59
0 58 -31 0 c-21 0 -40 -10 -61 -30 -16 -16 -31 -30 -32 -30 -2 0 -3 12 -2 28
1 27 0 27 -66 30 l-68 3 0 -296z"/>
<path d="M4973 4383 c-12 -2 -34 -18 -48 -34 l-25 -31 0 -218 c0 -143 4 -228
11 -244 21 -45 68 -59 195 -54 108 3 115 5 141 30 22 22 27 39 31 88 l4 60
-65 0 -66 0 -3 -37 -3 -38 -55 0 -55 0 -3 78 -3 77 125 0 c91 0 125 3 129 13
2 7 2 66 -1 131 -5 112 -6 121 -33 150 -27 31 -27 31 -141 33 -62 0 -123 -1
-135 -4z m175 -170 l3 -73 -61 0 -60 0 0 68 c0 38 3 72 7 76 4 4 30 6 58 4
l50 -3 3 -72z"/>
<path d="M5513 4383 c-12 -2 -34 -18 -48 -34 l-25 -31 0 -218 c0 -143 4 -228
11 -244 21 -45 68 -59 195 -54 108 3 115 5 141 30 22 22 27 39 31 88 l4 60
-65 0 -66 0 -3 -37 -3 -38 -55 0 -55 0 -3 78 -3 77 125 0 c91 0 125 3 129 13
2 7 2 66 -1 131 -5 112 -6 121 -33 150 -27 31 -27 31 -141 33 -62 0 -123 -1
-135 -4z m175 -170 l3 -73 -61 0 -60 0 0 68 c0 38 3 72 7 76 4 4 30 6 58 4
l50 -3 3 -72z"/>
<path d="M6520 4095 l0 -295 70 0 70 0 0 295 0 295 -70 0 -70 0 0 -295z"/>
<path d="M6832 4125 l3 -265 27 -26 c42 -42 154 -47 192 -8 15 14 16 14 16 -5
0 -19 6 -21 70 -21 l70 0 0 295 0 295 -70 0 -70 0 0 -235 c0 -213 -2 -235 -17
-243 -24 -13 -74 -6 -84 10 -5 7 -9 115 -9 241 l0 227 -65 0 -66 0 3 -265z"/>
<path d="M7390 4095 l0 -295 70 0 70 0 0 234 c0 138 4 237 10 241 17 10 82 9
89 -3 3 -6 6 -115 5 -241 l-2 -231 69 0 69 0 2 238 3 237 50 0 50 0 3 -237 2
-238 65 0 65 0 0 255 c0 169 -4 262 -11 279 -15 33 -66 56 -124 56 -48 0 -100
-20 -108 -42 -3 -9 -12 -6 -30 10 -38 36 -137 43 -177 13 -36 -26 -40 -26 -40
-1 0 18 -7 20 -65 20 l-65 0 0 -295z"/>
</g>
</svg>
