<?xml version="1.0" standalone="no"?>
<!DOCTYPE svg PUBLIC "-//W3C//DTD SVG 20010904//EN"
 "http://www.w3.org/TR/2001/REC-SVG-20010904/DTD/svg10.dtd">
<svg version="1.0" xmlns="http://www.w3.org/2000/svg"
 width="1200.000000pt" height="1200.000000pt" viewBox="0 0 1200.000000 1200.000000"
 preserveAspectRatio="xMidYMid meet">

<g transform="translate(0.000000,1200.000000) scale(0.100000,-0.100000)"
fill="#000000" stroke="none">
<path d="M1280 6000 l0 -4720 4720 0 4720 0 0 4720 0 4720 -4720 0 -4720 0 0
-4720z m9220 0 l0 -4500 -4500 0 -4500 0 0 4500 0 4500 4500 0 4500 0 0 -4500z"/>
<path d="M3218 7403 l-48 -4 0 -450 0 -449 95 0 95 0 0 224 0 224 40 36 c45
41 87 47 113 18 15 -16 17 -49 17 -260 l0 -242 95 0 96 0 -3 279 c-3 264 -4
281 -24 307 -65 87 -180 99 -284 29 l-50 -34 0 165 0 164 -47 -2 c-27 -1 -69
-3 -95 -5z"/>
<path d="M2430 6911 l0 -421 95 0 95 0 0 139 0 138 103 6 c124 6 198 31 249
84 61 64 73 97 73 198 0 81 -3 95 -28 138 -15 26 -45 58 -65 72 -77 51 -114
58 -324 63 l-198 4 0 -421z m350 261 c49 -24 73 -74 66 -136 -10 -91 -56 -126
-166 -126 l-60 0 0 140 0 140 63 0 c39 0 75 -6 97 -18z"/>
<path d="M6760 7255 l0 -75 120 0 120 0 0 -345 0 -345 95 0 95 0 0 345 0 345
114 0 114 0 6 48 c4 26 9 59 12 75 l6 27 -341 0 -341 0 0 -75z"/>
<path d="M4825 7151 c-59 -15 -106 -44 -149 -92 -59 -65 -81 -137 -80 -254 2
-196 98 -313 269 -331 182 -19 315 81 345 258 31 180 -37 343 -167 400 -49 22
-169 32 -218 19z m144 -157 c38 -32 51 -77 51 -179 0 -102 -13 -147 -51 -179
-63 -53 -146 -19 -168 68 -6 25 -11 75 -11 111 0 36 5 86 11 111 22 87 105
121 168 68z"/>
<path d="M5592 7145 c-107 -30 -196 -122 -223 -228 -18 -72 -7 -212 20 -269
31 -64 84 -116 150 -147 102 -47 276 -31 355 32 l29 23 -38 57 c-21 31 -39 57
-41 57 -1 0 -25 -11 -52 -25 -93 -47 -186 -24 -219 53 -11 24 -16 66 -16 117
0 95 25 155 75 181 40 21 121 15 174 -13 l40 -21 37 53 c20 29 37 58 37 64 0
5 -29 24 -64 41 -78 39 -181 48 -264 25z"/>
<path d="M7966 7148 c-44 -12 -106 -69 -127 -116 -8 -18 -17 -32 -20 -32 -3 0
-12 30 -20 68 l-14 67 -117 3 -118 3 0 -66 0 -65 45 0 45 0 0 -195 0 -195 -45
0 -45 0 0 -65 0 -65 205 0 205 0 0 65 0 65 -65 0 -65 0 0 100 c0 87 3 107 24
148 28 54 69 96 109 111 l27 11 0 -60 0 -60 59 0 59 0 11 78 c21 148 24 189
13 196 -20 12 -127 15 -166 4z"/>
<path d="M8460 7154 c-69 -13 -161 -37 -165 -44 -5 -8 23 -100 35 -114 5 -4
37 -1 72 8 79 20 128 20 173 2 36 -15 49 -33 60 -83 l7 -33 -69 0 c-218 0
-336 -77 -336 -219 0 -129 103 -212 246 -197 58 6 143 42 167 70 12 15 14 15
27 -4 17 -24 65 -50 110 -60 32 -8 32 -7 52 53 21 60 21 61 2 81 -18 19 -20
40 -23 206 -3 181 -4 186 -30 232 -40 66 -106 97 -219 103 -46 2 -95 2 -109
-1z m180 -422 c0 -57 -20 -89 -66 -108 -74 -31 -144 0 -144 63 1 57 58 92 153
93 l57 0 0 -48z"/>
<path d="M9320 7151 c-40 -13 -84 -37 -104 -60 -24 -26 -36 -27 -36 -2 0 46
-8 51 -91 51 l-79 0 0 -325 0 -325 95 0 95 0 0 228 c1 242 0 238 54 280 35 27
77 28 99 4 15 -16 17 -50 17 -265 l0 -247 95 0 96 0 -3 283 c-3 279 -3 282
-27 316 -41 58 -134 85 -211 62z"/>
<path d="M3900 6872 c0 -258 1 -269 23 -312 31 -63 74 -85 162 -84 75 0 119
17 166 61 l27 24 6 -35 7 -36 79 0 80 0 0 325 0 325 -95 0 -95 0 0 -233 0
-233 -28 -27 c-37 -35 -84 -45 -117 -23 l-25 16 0 250 0 250 -95 0 -95 0 0
-268z"/>
<path d="M5840 5902 c-77 -26 -109 -44 -153 -88 -35 -35 -87 -128 -87 -155 0
-7 -17 -30 -37 -52 l-38 -38 -3 -117 -4 -117 -39 -33 c-22 -19 -51 -55 -67
-80 l-27 -47 -3 -297 c-3 -265 -1 -302 14 -334 21 -45 78 -73 147 -74 l47 0 0
-153 c0 -136 2 -156 18 -170 17 -15 59 -17 394 -17 350 0 376 1 391 18 14 16
17 43 17 170 l0 152 48 0 c68 1 125 29 146 74 15 32 17 69 14 334 l-3 297 -27
47 c-16 25 -45 61 -67 80 l-39 33 -4 117 -3 117 -37 38 c-21 22 -38 44 -38 51
0 29 -51 122 -85 157 -21 21 -68 51 -104 68 -61 29 -75 32 -191 34 -100 3
-136 -1 -180 -15z m324 -146 c64 -31 102 -87 112 -162 13 -104 -17 -202 -75
-243 -48 -34 -145 -54 -235 -48 -152 10 -229 77 -243 209 -11 108 32 204 109
244 80 41 248 41 332 0z m-372 -551 c107 -49 299 -49 420 -1 75 30 162 35 208
11 51 -26 64 -66 68 -202 l4 -123 -41 0 -41 0 0 82 c0 62 -4 86 -17 100 -20
22 -70 23 -95 1 -17 -15 -18 -39 -18 -355 l0 -338 -27 7 c-37 10 -132 10 -160
0 l-23 -8 0 126 c0 120 -1 127 -25 150 -31 32 -59 32 -90 0 -24 -23 -25 -30
-25 -150 l0 -126 -22 8 c-29 10 -124 10 -160 0 l-28 -7 0 337 c0 372 0 373
-63 373 -54 0 -67 -22 -67 -117 l0 -83 -41 0 -41 0 4 123 c4 134 14 165 64
197 44 30 146 27 216 -5z m-202 -420 c0 -34 -1 -35 -40 -35 -39 0 -40 1 -40
35 0 34 1 35 40 35 39 0 40 -1 40 -35z m900 0 c0 -34 -1 -35 -40 -35 -39 0
-40 1 -40 35 0 34 1 35 40 35 39 0 40 -1 40 -35z m-900 -140 c0 -34 -1 -35
-40 -35 -39 0 -40 1 -40 35 0 34 1 35 40 35 39 0 40 -1 40 -35z m900 0 c0 -34
-1 -35 -40 -35 -39 0 -40 1 -40 35 0 34 1 35 40 35 39 0 40 -1 40 -35z m-591
-326 c23 -8 31 -17 31 -35 0 -24 -1 -24 -105 -24 -99 0 -105 1 -105 20 0 41
107 64 179 39z m351 -4 c18 -9 30 -24 30 -35 0 -19 -7 -20 -105 -20 -104 0
-105 0 -105 24 0 17 8 27 28 34 41 16 119 14 152 -3z"/>
<path d="M5942 5709 c-55 -11 -99 -36 -126 -72 -16 -22 -21 -43 -21 -94 0 -99
8 -103 205 -103 193 0 201 4 207 96 5 78 -18 117 -90 149 -64 28 -118 36 -175
24z"/>
<path d="M5876 4998 c-29 -41 -17 -147 18 -170 6 -4 55 -8 108 -8 126 0 147
20 135 127 -7 66 -21 73 -143 73 -95 0 -104 -2 -118 -22z"/>
</g>
</svg>
